<svg xmlns="http://www.w3.org/2000/svg" version="1.1" xmlns:xlink="http://www.w3.org/1999/xlink" xmlns:svgjs="http://svgjs.dev/svgjs" width="1500" height="1500" viewBox="0 0 1500 1500"><rect width="1500" height="1500" fill="#ffffff"></rect><g transform="matrix(0.6666666666666666,0,0,0.6666666666666666,249.39393939393938,486.80195180528085)"><svg viewBox="0 0 396 209" data-background-color="#06413d" preserveAspectRatio="xMidYMid meet" height="791" width="1500" xmlns="http://www.w3.org/2000/svg" xmlns:xlink="http://www.w3.org/1999/xlink"><g id="tight-bounds" transform="matrix(1,0,0,1,0.2400000000000091,-0.1857293185278479)"><svg viewBox="0 0 395.52 209.3714586370557" height="209.3714586370557" width="395.52"><g><svg viewBox="0 0 395.52 209.3714586370557" height="209.3714586370557" width="395.52"><g transform="matrix(1,0,0,1,0,154.7084725130964)"><svg viewBox="0 0 395.52 54.6629861239593" height="54.6629861239593" width="395.52"><g id="textblocktransform"><svg viewBox="0 0 395.52 54.6629861239593" height="54.6629861239593" width="395.52" id="textblock"><g><svg viewBox="0 0 395.52 54.6629861239593" height="54.6629861239593" width="395.52"><g transform="matrix(1,0,0,1,0,0)"><svg width="395.52" viewBox="4.95 -37.1 271.48 37.35" height="54.6629861239593" data-palette-color="#efd9cc"><g class="wordmark-text-0" data-fill-palette-color="primary" id="text-0"><path d="M18.5-26.5Q22.2-26.5 25.2-24.83 28.2-23.15 29.9-20.1 31.6-17.05 31.6-13.15L31.6-13.15Q31.6-9.25 29.9-6.2 28.2-3.15 25.2-1.45 22.2 0.25 18.5 0.25L18.5 0.25Q15.2 0.25 12.58-1.15 9.95-2.55 8.35-5.2L8.35-5.2 8.35 0 4.95 0 4.95-37.1 8.5-37.1 8.5-21.3Q10.15-23.85 12.73-25.18 15.3-26.5 18.5-26.5L18.5-26.5ZM18.25-2.9Q21-2.9 23.25-4.17 25.5-5.45 26.78-7.8 28.05-10.15 28.05-13.15L28.05-13.15Q28.05-16.15 26.78-18.5 25.5-20.85 23.25-22.13 21-23.4 18.25-23.4L18.25-23.4Q15.45-23.4 13.23-22.13 11-20.85 9.73-18.5 8.45-16.15 8.45-13.15L8.45-13.15Q8.45-10.15 9.73-7.8 11-5.45 13.23-4.17 15.45-2.9 18.25-2.9L18.25-2.9ZM49.6 0.25Q45.8 0.25 42.75-1.48 39.7-3.2 37.95-6.25 36.2-9.3 36.2-13.15L36.2-13.15Q36.2-17 37.95-20.05 39.7-23.1 42.75-24.8 45.8-26.5 49.6-26.5L49.6-26.5Q53.4-26.5 56.45-24.8 59.5-23.1 61.22-20.05 62.95-17 62.95-13.15L62.95-13.15Q62.95-9.3 61.22-6.25 59.5-3.2 56.45-1.48 53.4 0.25 49.6 0.25L49.6 0.25ZM49.6-2.9Q52.4-2.9 54.62-4.17 56.85-5.45 58.1-7.8 59.35-10.15 59.35-13.15L59.35-13.15Q59.35-16.15 58.1-18.5 56.85-20.85 54.62-22.13 52.4-23.4 49.6-23.4L49.6-23.4Q46.8-23.4 44.57-22.13 42.35-20.85 41.07-18.5 39.8-16.15 39.8-13.15L39.8-13.15Q39.8-10.15 41.07-7.8 42.35-5.45 44.57-4.17 46.8-2.9 49.6-2.9L49.6-2.9ZM80.95 0.25Q77.15 0.25 74.09-1.48 71.05-3.2 69.3-6.25 67.55-9.3 67.55-13.15L67.55-13.15Q67.55-17 69.3-20.05 71.05-23.1 74.09-24.8 77.15-26.5 80.95-26.5L80.95-26.5Q84.75-26.5 87.8-24.8 90.84-23.1 92.57-20.05 94.3-17 94.3-13.15L94.3-13.15Q94.3-9.3 92.57-6.25 90.84-3.2 87.8-1.48 84.75 0.25 80.95 0.25L80.95 0.25ZM80.95-2.9Q83.75-2.9 85.97-4.17 88.2-5.45 89.45-7.8 90.7-10.15 90.7-13.15L90.7-13.15Q90.7-16.15 89.45-18.5 88.2-20.85 85.97-22.13 83.75-23.4 80.95-23.4L80.95-23.4Q78.15-23.4 75.92-22.13 73.7-20.85 72.42-18.5 71.15-16.15 71.15-13.15L71.15-13.15Q71.15-10.15 72.42-7.8 73.7-5.45 75.92-4.17 78.15-2.9 80.95-2.9L80.95-2.9ZM121.89 0L111.29-13.2 105.09-7.5 105.09 0 101.54 0 101.54-37.1 105.09-37.1 105.09-11.95 120.79-26.3 125.19-26.3 113.94-15.55 126.24 0 121.89 0ZM144.99-26.5Q149.94-26.5 152.87-23.63 155.79-20.75 155.79-15.25L155.79-15.25 155.79 0 152.24 0 152.24-14.9Q152.24-19 150.19-21.15 148.14-23.3 144.34-23.3L144.34-23.3Q140.09-23.3 137.62-20.78 135.14-18.25 135.14-13.8L135.14-13.8 135.14 0 131.59 0 131.59-37.1 135.14-37.1 135.14-21.7Q136.59-24 139.14-25.25 141.69-26.5 144.99-26.5L144.99-26.5ZM174.64-26.5Q179.79-26.5 182.54-23.93 185.29-21.35 185.29-16.3L185.29-16.3 185.29 0 181.89 0 181.89-4.1Q180.69-2.05 178.36-0.9 176.04 0.25 172.84 0.25L172.84 0.25Q168.44 0.25 165.84-1.85 163.24-3.95 163.24-7.4L163.24-7.4Q163.24-10.75 165.66-12.8 168.09-14.85 173.39-14.85L173.39-14.85 181.74-14.85 181.74-16.45Q181.74-19.85 179.84-21.63 177.94-23.4 174.29-23.4L174.29-23.4Q171.79-23.4 169.49-22.58 167.19-21.75 165.54-20.3L165.54-20.3 163.94-22.95Q165.94-24.65 168.74-25.58 171.54-26.5 174.64-26.5L174.64-26.5ZM173.39-2.55Q176.39-2.55 178.54-3.93 180.69-5.3 181.74-7.9L181.74-7.9 181.74-12.2 173.49-12.2Q166.74-12.2 166.74-7.5L166.74-7.5Q166.74-5.2 168.49-3.88 170.24-2.55 173.39-2.55L173.39-2.55ZM213.54-26.3L217.04-26.3 205.34 0 201.69 0 190.04-26.3 193.74-26.3 203.59-3.9 213.54-26.3ZM244.98-13.15L244.93-12.05 222.93-12.05Q223.23-7.95 226.08-5.43 228.93-2.9 233.28-2.9L233.28-2.9Q235.73-2.9 237.78-3.78 239.83-4.65 241.33-6.35L241.33-6.35 243.33-4.05Q241.58-1.95 238.96-0.85 236.33 0.25 233.18 0.25L233.18 0.25Q229.13 0.25 226.01-1.48 222.88-3.2 221.13-6.25 219.38-9.3 219.38-13.15L219.38-13.15Q219.38-17 221.06-20.05 222.73-23.1 225.66-24.8 228.58-26.5 232.23-26.5L232.23-26.5Q235.88-26.5 238.78-24.8 241.68-23.1 243.33-20.08 244.98-17.05 244.98-13.15L244.98-13.15ZM232.23-23.45Q228.43-23.45 225.86-21.03 223.28-18.6 222.93-14.7L222.93-14.7 241.58-14.7Q241.23-18.6 238.66-21.03 236.08-23.45 232.23-23.45L232.23-23.45ZM265.63-26.5Q270.58-26.5 273.51-23.63 276.43-20.75 276.43-15.25L276.43-15.25 276.43 0 272.88 0 272.88-14.9Q272.88-19 270.83-21.15 268.78-23.3 264.98-23.3L264.98-23.3Q260.73-23.3 258.26-20.78 255.78-18.25 255.78-13.8L255.78-13.8 255.78 0 252.23 0 252.23-26.3 255.63-26.3 255.63-21.45Q257.08-23.85 259.66-25.18 262.23-26.5 265.63-26.5L265.63-26.5Z" fill="#000000" data-fill-palette-color="primary"></path></g></svg></g></svg></g></svg></g></svg></g><g transform="matrix(1,0,0,1,133.3103828556516,0)"><svg viewBox="0 0 128.8992342886968 128.8992342886968" height="128.8992342886968" width="128.8992342886968"><g><svg></svg></g><g id="icon-0"><svg viewBox="0 0 128.8992342886968 128.8992342886968" height="128.8992342886968" width="128.8992342886968"><g><path d="M0 64.45c0-35.595 28.855-64.45 64.45-64.45 35.595 0 64.45 28.855 64.449 64.45 0 35.595-28.855 64.45-64.449 64.449-35.595 0-64.45-28.855-64.45-64.449zM64.45 123.97c32.872 0 59.52-26.648 59.52-59.52 0-32.872-26.648-59.52-59.52-59.52-32.872 0-59.52 26.648-59.52 59.52 0 32.872 26.648 59.52 59.52 59.52z" data-fill-palette-color="accent" fill="#000000" stroke="transparent"></path></g><g transform="matrix(1,0,0,1,28.631977460427265,31.004537913090203)"><svg viewBox="0 0 71.63527936784226 66.89015846251638" height="66.89015846251638" width="71.63527936784226"><g><svg xmlns="http://www.w3.org/2000/svg" xmlns:xlink="http://www.w3.org/1999/xlink" version="1.1" x="0" y="0" viewBox="0 5.312 100 93.376" enable-background="new 0 0 100 100" xml:space="preserve" height="66.89015846251638" width="71.63527936784226" class="icon-cg-0" data-fill-palette-color="accent" id="cg-0"><polygon points="91.822,10.995 91.822,5.312 52.71,29.765 " fill="#000000" data-fill-palette-color="accent"></polygon><polygon points="52.71,31.876 52.71,98.688 100,76.418 100,9.605 " fill="#000000" data-fill-palette-color="accent"></polygon><polygon points="8.178,10.995 8.178,5.312 47.29,29.765 " fill="#000000" data-fill-palette-color="accent"></polygon><polygon points="47.29,31.876 47.29,98.688 0,76.418 0,9.605 " fill="#000000" data-fill-palette-color="accent"></polygon></svg></g></svg></g></svg></g></svg></g><g></g></svg></g><defs></defs></svg><rect width="395.52" height="209.3714586370557" fill="none" stroke="none" visibility="hidden"></rect></g></svg></g></svg>